<svg xmlns="http://www.w3.org/2000/svg" width="34" height="23"><path d="M32.455 23H1.545A1.5 1.5 0 0 1 0 21.563V1.353L.008 1.3v-.017l.007-.057V1.21l.011-.053v-.018l.013-.052v-.016l.017-.054L.072 1 .09.954.1.935.118.887.125.872.149.824.157.807.182.762.193.744.218.7.234.68.257.645l.02-.027L.3.587.321.561.339.539.351.526.36.517A1.582 1.582 0 0 1 1.542 0h30.916A1.6 1.6 0 0 1 33.6.472l.042.044.011.012.011.013.018.022.018.025.024.03.019.027.024.035.016.02.025.04.011.019.025.044.008.017.024.049.007.016.017.051.007.018.018.05v.014l.017.053v.016l.013.052v.018l.011.053v.016l.007.057V1.3l.027.053v20.21A1.5 1.5 0 0 1 32.455 23zM3.091 4.428v15.7h27.818v-15.7l-12.944 9.631a1.635 1.635 0 0 1-1.931 0zm2.861-1.552L17 11.1l11.05-8.224z" style="fill:#fff"/></svg>
