<svg xmlns="http://www.w3.org/2000/svg" width="30" height="30"><path d="M241 5218a15 15 0 1 0 15 15 15 15 0 0 0-15-15zm-7.8 12.42h3.4v10.22h-3.4zm3.623-3.16a1.918 1.918 0 1 0-1.945 1.77h.022a1.776 1.776 0 0 0 1.924-1.77zm8.122 2.92c2.237 0 3.914 1.46 3.914 4.6v5.86h-3.4v-5.47c0-1.37-.492-2.31-1.722-2.31a1.867 1.867 0 0 0-1.744 1.25 2.262 2.262 0 0 0-.112.82v5.71h-3.4s.045-9.26 0-10.22h3.4v1.45a3.387 3.387 0 0 1 3.065-1.69z" transform="translate(-226 -5218)" style="fill:#fff;fill-rule:evenodd"/></svg>