<svg xmlns="http://www.w3.org/2000/svg" width="30" height="29.991"><defs><clipPath id="a"><path style="fill:none" d="M0 0h30v29.991H0z"/></clipPath></defs><g style="clip-path:url(#a)"><path d="M13.961.019a15.054 15.054 0 0 0-8.573 3.452 21.689 21.689 0 0 0-1.9 1.9 15.005 15.005 0 0 0 .081 19.32 20.892 20.892 0 0 0 1.518 1.543 15 15 0 0 0 21.17-21.17 21.01 21.01 0 0 0-1.559-1.534A14.978 14.978 0 0 0 16.533.062a22.815 22.815 0 0 0-2.572-.043m8.87 5.66a.417.417 0 0 1 .134.127c.1.191.177.049-3.012 5.67L16.934 16.8l1.877 3.42a946.114 946.114 0 0 1 1.943 3.549.423.423 0 0 1 .02.407c-.1.185-.086.184-1.721.184-.98 0-1.535-.012-1.614-.033-.286-.08-.278-.068-2.388-3.932L13.1 16.814l.044-.092c.176-.364 6.109-10.8 6.186-10.885.21-.222.169-.217 1.874-.217 1.464 0 1.535 0 1.629.06m-11.4 3.678c.253.071.365.233 1.381 2 .522.909.948 1.681.947 1.715 0 .078-2.944 5.257-3.072 5.41a.93.93 0 0 1-.226.185c-.127.068-.142.069-1.627.078a12.876 12.876 0 0 1-1.584-.026.379.379 0 0 1-.239-.356 15.32 15.32 0 0 1 1.428-2.653c.786-1.384 1.441-2.55 1.457-2.592.026-.067-.081-.266-.9-1.669a9.5 9.5 0 0 1-.941-1.739.293.293 0 0 1 .159-.342 7.664 7.664 0 0 1 1.6-.047c.986 0 1.541.011 1.62.033" style="fill:#fff"/></g></svg>
