<svg xmlns="http://www.w3.org/2000/svg" width="30" height="30"><path d="M199 5218a15 15 0 1 0 15 15 15 15 0 0 0-15-15zm6.251 9.84a2.039 2.039 0 0 1 1.415 1.46 23.526 23.526 0 0 1 0 7.9 2.039 2.039 0 0 1-1.415 1.46 57.66 57.66 0 0 1-12.5 0 2.038 2.038 0 0 1-1.415-1.46 23.526 23.526 0 0 1 0-7.9 2.038 2.038 0 0 1 1.415-1.46 57.66 57.66 0 0 1 12.5 0z" transform="translate(-184 -5218)" style="fill-rule:evenodd;fill:#fff"/><path d="M197.5 5236v-5l4 2.5z" transform="translate(-184 -5218)" style="fill:#fff"/></svg>
